<svg width="55" height="51" viewBox="0 0 55 51" fill="none" xmlns="http://www.w3.org/2000/svg">
<path d="M22.4746 46.1577V50.5697L26.4562 48.3099L22.4746 46.1577Z" fill="black"/>
<path d="M30.2767 46.1577V50.5697L26.2951 48.3099L30.2767 46.1577Z" fill="black"/>
<path d="M38.0705 18.0195L37.7078 34.4773C37.7078 34.4773 35.6522 37 27.5511 37C19.5708 37 18.3012 34.1169 18.3012 34.1169L17.999 18.9805C17.6362 19.0406 18.4222 18.9805 17.999 18.9805C13.7066 19.0406 9.47461 15.6169 9.47461 11.3523C9.47461 7.08766 12.9811 3.6039 17.2735 3.6039C18.3617 3.6039 19.4499 3.84416 20.4172 4.26461C21.6868 1.74188 24.4074 0 27.4302 0C30.3321 0 32.6899 1.62175 34.0804 3.96429C35.35 3.00325 36.9218 2.52273 38.6751 2.52273C42.9675 2.52273 46.474 5.94643 46.474 10.2711C46.5344 14.5357 42.4234 18.0195 38.0705 18.0195C37.8287 18.0195 38.4332 18.0195 38.0705 18.0195Z" fill="white"/>
<path d="M9.38257 21.6009C9.38257 21.0431 9.33185 20.5866 9.28114 20.333C9.1797 19.7244 8.8754 19.1665 8.36824 18.7101C7.86107 18.2536 7.30319 18.0508 6.59316 18.0508C5.88313 18.0508 5.22381 18.3044 4.71664 18.8115C4.15876 18.3044 3.55016 18.0508 2.84013 18.0508C2.18081 18.0508 1.5215 18.3044 1.06505 18.7101C0.608599 19.1158 0.253583 19.623 0.101433 20.333C0.0507165 20.6373 0 21.0431 0 21.6009V25.9626C0 26.2162 0.202866 26.3176 0.355016 26.3176C0.608599 26.3176 0.710033 26.1147 0.710033 25.9626V21.4488C0.710033 20.6373 0.862182 19.978 1.2172 19.4708C1.57221 18.913 2.1301 18.6594 2.89085 18.6594C3.44873 18.6594 3.90518 18.8622 4.31091 19.268C3.9559 19.8766 3.80375 20.5359 3.80375 21.4488V25.9119C3.80375 26.1147 3.95589 26.2669 4.15876 26.2669C4.41234 26.2669 4.51378 26.064 4.51378 25.9119V21.3981C4.51378 20.7388 4.61521 20.2316 4.76736 19.8766C4.91951 20.2823 5.02094 20.8909 5.02094 21.6009V25.9626C5.02094 26.1654 5.17309 26.3176 5.37596 26.3176C5.62954 26.3176 5.73098 26.1147 5.73098 25.9626V21.2966C5.73098 20.3837 5.57883 19.7244 5.22381 19.2173C5.57883 18.8622 6.03528 18.6594 6.59316 18.6594C7.10032 18.6594 7.55677 18.8115 7.91179 19.1158C8.2668 19.3694 8.52039 19.7751 8.67254 20.2823C8.77397 20.5866 8.77397 20.9416 8.77397 21.4488V25.9626C8.77397 26.1654 8.92612 26.3176 9.12899 26.3176C9.38257 26.3176 9.484 26.1147 9.484 25.9626L9.43329 25.709V21.6009H9.38257Z" fill="black"/>
<path d="M17.5987 19.3185C16.7872 18.5071 15.7729 18.1013 14.6064 18.1013C13.4399 18.1013 12.4256 18.5071 11.6141 19.3185C10.8026 20.13 10.3969 21.1443 10.3969 22.3108C10.3969 23.4773 10.8026 24.4916 11.6648 25.3031C12.527 26.1145 13.5413 26.5203 14.7078 26.5203C15.57 26.5203 16.3815 26.2667 17.0408 25.8102V25.9117C17.0408 26.2667 17.2437 26.3681 17.3958 26.3681C17.548 26.3681 17.7508 26.216 17.7508 25.9117V25.2524C18.5623 24.3902 18.968 23.4266 18.968 22.3108C18.8666 21.0936 18.4101 20.0793 17.5987 19.3185ZM16.9394 22.3615V24.9988C16.2293 25.6074 15.4686 25.9117 14.6064 25.9117C13.6428 25.9117 12.7806 25.5567 12.1213 24.8466C11.4112 24.1873 11.1069 23.3758 11.1069 22.3615C11.1069 21.3472 11.462 20.5357 12.172 19.8257C12.882 19.1157 13.6935 18.7606 14.7078 18.7606C15.6714 18.7606 16.5336 19.1157 17.1929 19.8257C17.8522 20.5357 18.258 21.3472 18.258 22.3108C18.258 23.0208 18.0551 23.6294 17.7001 24.1873V22.3615C17.5987 21.8543 16.9394 21.8543 16.9394 22.3615Z" fill="black"/>
<path d="M23.431 26.5203C24.3947 26.5203 25.3076 26.216 26.119 25.5567C26.3219 25.4046 26.474 25.3031 26.5755 25.151H26.6262V25.1003C26.6769 25.0496 26.6769 24.9988 26.6769 24.8974C26.6769 24.7453 26.5755 24.5931 26.3726 24.5931H26.1697L26.119 24.6945V24.796C25.764 25.1003 25.3583 25.4046 24.9525 25.6074C24.4961 25.8103 23.9889 25.9625 23.5325 25.9625C22.5181 25.9625 21.7067 25.6074 21.0474 24.8974C20.3373 24.1874 19.9823 23.3759 19.9823 22.3616C19.9823 21.398 20.3373 20.5358 21.0474 19.8765C21.7067 19.1664 22.5181 18.8621 23.5325 18.8621C24.4961 18.8621 25.3583 19.2171 26.0683 19.9272L26.2204 20.0286H26.4233L26.474 19.9779C26.5755 19.9272 26.6262 19.8257 26.6262 19.7243V19.6229L26.5755 19.5722C26.5755 19.5722 26.5755 19.5214 26.5247 19.5214C26.474 19.4707 26.474 19.42 26.4233 19.42C25.6626 18.6085 24.6482 18.1521 23.431 18.1521C22.2646 18.1521 21.2502 18.5578 20.4388 19.3693C19.6273 20.1808 19.2216 21.1951 19.2216 22.3616C19.2216 23.4773 19.6273 24.4917 20.4388 25.3539C21.3009 26.1146 22.3153 26.5203 23.431 26.5203Z" fill="black"/>
<path d="M33.8788 19.3185C33.0673 18.5071 32.053 18.1013 30.8865 18.1013C29.72 18.1013 28.7057 18.5071 27.8942 19.3185C27.0827 20.13 26.677 21.1443 26.677 22.3108C26.677 23.4773 27.0827 24.4916 27.8942 25.3031C28.7564 26.1145 29.7707 26.5203 30.9372 26.5203C31.7994 26.5203 32.6108 26.2667 33.2702 25.8102V25.9117C33.2702 26.2667 33.473 26.3681 33.6252 26.3681C33.7773 26.3681 33.9802 26.216 33.9802 25.9117V25.2524C34.7917 24.3902 35.1974 23.4266 35.1974 22.3108C35.1467 21.0429 34.7409 20.0793 33.8788 19.3185ZM33.2194 22.3615V24.9988C32.5094 25.6074 31.7487 25.9117 30.8865 25.9117C29.9229 25.9117 29.0607 25.5567 28.3506 24.8466C27.6406 24.1873 27.3363 23.3758 27.3363 22.3615C27.3363 21.3472 27.6913 20.5357 28.4014 19.8257C29.1114 19.1157 29.9229 18.7606 30.9372 18.7606C31.9008 18.7606 32.763 19.1157 33.4223 19.8257C34.1323 20.5357 34.4874 21.3472 34.4874 22.3108C34.4874 23.0208 34.2845 23.6801 33.9295 24.238V22.4122C33.8788 21.8543 33.2194 21.8543 33.2194 22.3615Z" fill="black"/>
<path d="M36.2118 26.3683C36.4653 26.3683 36.5668 26.1654 36.5668 26.0132V22.7167C36.5668 21.8545 36.6175 21.3473 36.7189 20.9923C36.8711 20.4344 37.1754 19.978 37.5811 19.6229C37.9868 19.2679 38.4433 19.0651 38.9505 18.9129C39.204 18.9129 39.3055 18.71 39.3055 18.5579C39.3055 18.3043 39.1533 18.2536 39.0519 18.2029H39.0012H38.9505C38.6969 18.2029 38.3926 18.3043 38.0376 18.5072C37.429 18.8115 36.9218 19.2172 36.5668 19.7751C36.5668 19.4708 36.5668 19.0651 36.5668 18.6086C36.5668 18.1014 35.8568 18.1014 35.8568 18.6086V26.0132C35.8568 26.2161 36.0089 26.3683 36.2118 26.3683Z" fill="black"/>
<path d="M46.6592 19.3185C45.8477 18.5071 44.8334 18.1013 43.6669 18.1013C42.5004 18.1013 41.4861 18.5071 40.6746 19.3185C39.8631 20.13 39.4574 21.1443 39.4574 22.3108C39.4574 23.4773 39.8631 24.4916 40.6746 25.3031C41.5368 26.1145 42.5511 26.5203 43.7176 26.5203C44.8841 26.5203 45.8984 26.1145 46.7099 25.2524C47.5213 24.3902 47.9271 23.3758 47.9271 22.2094C47.9271 21.0936 47.5213 20.0793 46.6592 19.3185ZM43.6669 18.7606C44.6305 18.7606 45.4927 19.1157 46.152 19.8257C46.862 20.5357 47.217 21.3472 47.217 22.3108C47.217 23.3251 46.862 24.1873 46.1013 24.8466C45.442 25.5567 44.6305 25.861 43.6162 25.861C42.6525 25.861 41.7904 25.5059 41.131 24.7959C40.421 24.0859 40.066 23.2744 40.066 22.3108C40.066 21.2965 40.421 20.485 41.131 19.775C41.7904 19.0649 42.6525 18.7606 43.6669 18.7606Z" fill="black"/>
<path d="M54.5203 20.2315C54.4189 19.6229 54.1146 19.1158 53.5567 18.6593C53.0495 18.2536 52.4409 18 51.7816 18C51.2744 18 50.818 18.1014 50.4122 18.355C50.1079 18.5579 49.8036 18.7608 49.6008 19.065V18.5579C49.6008 18.0507 48.8907 18.0507 48.8907 18.5579V25.9625C48.8907 26.2161 49.0936 26.3175 49.2458 26.3175C49.4993 26.3175 49.6008 26.1147 49.6008 25.9625V21.753C49.6008 21.2966 49.6008 20.8908 49.6515 20.688C49.7529 20.0794 49.9558 19.6229 50.3108 19.2679C50.7165 18.9129 51.2237 18.71 51.7309 18.71C52.1366 18.71 52.5423 18.8115 52.8466 19.0143C53.3031 19.2679 53.6074 19.6736 53.7088 20.1808C53.8103 20.4851 53.8103 21.043 53.8103 21.753V25.9625C53.8103 26.1654 53.9624 26.3175 54.1653 26.3175C54.2667 26.3175 54.3681 26.2668 54.4189 26.2161H54.571V21.398C54.6217 20.9416 54.571 20.5358 54.5203 20.2315Z" fill="black"/>
<path d="M15.8742 36.1057C15.5192 36.1057 15.4685 36.3086 15.4685 36.4607C15.4685 36.7143 15.6713 36.8157 15.8235 36.8157C16.2292 36.8157 16.5335 36.9172 16.8885 37.12C17.5478 37.4751 17.9029 38.0837 17.9029 38.8444C17.9029 39.4023 17.7 39.8587 17.2943 40.2645C16.8885 40.6702 16.4321 40.8731 15.8742 40.8731C15.0627 40.8731 14.5048 40.5181 14.0484 39.808C13.8962 39.6052 13.7948 39.3009 13.7948 38.9458C13.7948 38.6923 13.6427 38.5401 13.4398 38.5401C13.1862 38.5401 13.0848 38.743 13.0848 38.8951C13.0848 39.6052 13.3891 40.2645 13.947 40.7209C14.4541 41.2281 15.1134 41.4817 15.8235 41.4817C16.5842 41.4817 17.2435 41.2281 17.7507 40.6702C18.2579 40.163 18.5622 39.5037 18.5622 38.743C18.5622 37.9822 18.3086 37.3736 17.8014 36.8665C17.2943 36.41 16.6349 36.1057 15.8742 36.1057Z" fill="black"/>
<path d="M15.7221 33.9757C16.3814 33.9757 16.8379 34.2293 17.1422 34.7872C17.1929 34.8886 17.2943 35.0915 17.3451 35.2944C17.3451 35.5479 17.4972 35.7001 17.7001 35.7001C17.9029 35.7001 18.0551 35.5479 18.0551 35.3451C18.0551 34.7365 17.7508 34.2293 17.2436 33.925C16.7872 33.5193 16.28 33.3164 15.6714 33.3164C15.0628 33.3164 14.5049 33.5193 14.0485 33.9757C13.6427 34.4829 13.3892 34.9901 13.3892 35.5987C13.3892 36.2073 13.592 36.7651 14.0485 37.2216C14.4542 37.678 15.0121 37.9316 15.6207 37.9316C15.8743 37.9316 16.0264 37.7795 16.0264 37.5766C16.0264 37.3737 15.8743 37.2216 15.6714 37.2216C15.215 37.2216 14.8599 37.0694 14.5556 36.7651C14.2513 36.4608 14.0992 36.0551 14.0992 35.5987C14.0992 35.1422 14.2513 34.7365 14.5556 34.4322C14.9614 34.1279 15.3164 33.9757 15.7221 33.9757Z" fill="black"/>
<path d="M24.6989 36.7143C24.6989 36.1564 24.6482 35.7507 24.5975 35.4971C24.4453 34.8378 24.141 34.3306 23.6846 33.9756C23.1774 33.5191 22.6702 33.3163 22.0109 33.3163C21.5545 33.3163 21.098 33.4177 20.6923 33.6713C20.3373 33.8234 20.0837 34.077 19.8808 34.3306V31.2876C19.8808 30.7804 19.1708 30.7804 19.1708 31.2876V40.9745C19.1708 41.2281 19.3736 41.3295 19.5258 41.3295C19.7794 41.3295 19.8808 41.1266 19.8808 40.9745V36.9171C19.8808 36.6128 19.8808 36.3593 19.9315 36.1564C19.9315 36.0042 19.9315 35.9028 19.9315 35.8521C20.033 35.2942 20.2358 34.8378 20.5908 34.4827C20.9966 34.1277 21.4023 33.9756 22.0109 33.9756C22.4166 33.9756 22.8224 34.077 23.1267 34.2799C23.5831 34.5842 23.8367 34.9392 23.9381 35.3956C24.0396 35.6999 24.0396 36.2071 24.0396 36.9171V40.9745C24.0396 41.1773 24.1917 41.3295 24.3946 41.3295C24.6482 41.3295 24.7496 41.1266 24.7496 40.9745L24.6989 40.7209V36.7143V36.7143Z" fill="black"/>
<path d="M32.5093 34.4828C31.6978 33.6714 30.7342 33.2656 29.6184 33.2656C28.5027 33.2656 27.4883 33.6714 26.7276 34.4828C25.9161 35.2943 25.5104 36.2579 25.5104 37.3737C25.5104 38.4894 25.9161 39.5038 26.7276 40.2645C27.539 41.076 28.5027 41.4817 29.6691 41.4817C30.8356 41.4817 31.7992 41.076 32.56 40.2645C33.3714 39.4531 33.7772 38.4894 33.7772 37.323C33.7772 36.1565 33.3715 35.2436 32.5093 34.4828ZM27.184 39.8081C26.5247 39.1488 26.1697 38.3373 26.1697 37.3737C26.1697 36.4101 26.5247 35.5986 27.184 34.8886C27.8433 34.2292 28.6548 33.8742 29.6691 33.8742C30.582 33.8742 31.4442 34.2292 32.1035 34.8886C32.7628 35.5479 33.1179 36.3593 33.1179 37.323C33.1179 38.2866 32.7629 39.1488 32.0528 39.8081C31.3935 40.4674 30.582 40.8224 29.6184 40.8224C28.7055 40.8224 27.8433 40.4674 27.184 39.8081Z" fill="black"/>
<path d="M38.5446 33.2656C37.3781 33.2656 36.4145 33.6714 35.6537 34.4828C34.893 35.2943 34.4365 36.2579 34.4365 37.3737C34.4365 38.4894 34.8423 39.4531 35.603 40.2645V43.5611C35.603 43.764 35.7552 43.9161 35.958 43.9161C36.2116 43.9161 36.313 43.7132 36.313 43.5611V40.8731C36.9724 41.3296 37.7331 41.5324 38.5446 41.5324C39.711 41.5324 40.7254 41.1267 41.4861 40.3659C42.2976 39.5545 42.754 38.6416 42.754 37.4751C42.754 36.3086 42.2976 35.345 41.4861 34.5335C40.6747 33.6714 39.711 33.2656 38.5446 33.2656ZM35.958 37.0187C35.8059 37.0187 35.603 37.1708 35.603 37.4244V39.1488C35.2987 38.6416 35.1466 38.033 35.1466 37.3737C35.1466 36.4608 35.5016 35.5986 36.1609 34.9393C36.8709 34.2292 37.6824 33.9249 38.646 33.9249C39.6096 33.9249 40.4211 34.28 41.1311 34.9393C41.7904 35.5986 42.1454 36.4101 42.1454 37.4244C42.1454 38.388 41.7904 39.1995 41.0804 39.8588C40.4211 40.5181 39.6096 40.8731 38.646 40.8731C37.7838 40.8731 37.0231 40.5688 36.3638 39.9602V37.4244C36.313 37.0694 36.1102 37.0187 35.958 37.0187Z" fill="black"/>
</svg>
